<?xml version="1.0" encoding="UTF-8" standalone="no"?>
<!DOCTYPE svg PUBLIC "-//W3C//DTD SVG 1.1//EN"
 "http://www.w3.org/Graphics/SVG/1.1/DTD/svg11.dtd">
<!-- Generated by graphviz version 2.42.4 (0)
 -->
<!-- Pages: 1 -->
<svg width="272pt" height="76pt"
 viewBox="0.00 0.00 272.00 76.00" xmlns="http://www.w3.org/2000/svg" xmlns:xlink="http://www.w3.org/1999/xlink">
<g id="graph0" class="graph" transform="scale(1 1) rotate(0) translate(4 72)">
<polygon fill="white" stroke="transparent" points="-4,4 -4,-72 268,-72 268,4 -4,4"/>
<g id="clust1" class="cluster">
<title>cluster_legend</title>
<polygon fill="none" stroke="black" points="8,-8 8,-60 256,-60 256,-8 8,-8"/>
</g>
<!-- API -->
<g id="node1" class="node">
<title>API</title>
<polygon fill="orchid" stroke="black" points="248.04,-34 233.52,-52 204.48,-52 189.96,-34 204.48,-16 233.52,-16 248.04,-34"/>
<text text-anchor="middle" x="219" y="-30.3" font-family="Helvetica,sans-Serif" font-size="14.00">API</text>
</g>
<!-- Container -->
<g id="node2" class="node">
<title>Container</title>
<polygon fill="cyan" stroke="black" points="172,-52 88,-52 88,-16 172,-16 172,-52"/>
<text text-anchor="middle" x="130" y="-30.3" font-family="Helvetica,sans-Serif" font-size="14.00">Container</text>
</g>
<!-- Store -->
<g id="node3" class="node">
<title>Store</title>
<path fill="beige" stroke="black" d="M70,-48.73C70,-50.53 57.9,-52 43,-52 28.1,-52 16,-50.53 16,-48.73 16,-48.73 16,-19.27 16,-19.27 16,-17.47 28.1,-16 43,-16 57.9,-16 70,-17.47 70,-19.27 70,-19.27 70,-48.73 70,-48.73"/>
<path fill="none" stroke="black" d="M70,-48.73C70,-46.92 57.9,-45.45 43,-45.45 28.1,-45.45 16,-46.92 16,-48.73"/>
<text text-anchor="middle" x="43" y="-30.3" font-family="Helvetica,sans-Serif" font-size="14.00">Store</text>
</g>
</g>
</svg>
