<?xml version="1.0" encoding="UTF-8" standalone="no"?>
<!DOCTYPE svg PUBLIC "-//W3C//DTD SVG 1.1//EN"
 "http://www.w3.org/Graphics/SVG/1.1/DTD/svg11.dtd">
<!-- Generated by graphviz version 2.42.4 (0)
 -->
<!-- Pages: 1 -->
<svg width="240pt" height="44pt"
 viewBox="0.00 0.00 240.27 44.00" xmlns="http://www.w3.org/2000/svg" xmlns:xlink="http://www.w3.org/1999/xlink">
<g id="graph0" class="graph" transform="scale(1 1) rotate(0) translate(4 40)">
<polygon fill="white" stroke="transparent" points="-4,4 -4,-40 236.27,-40 236.27,4 -4,4"/>
<!-- API -->
<g id="node1" class="node">
<title>API</title>
<polygon fill="orchid" stroke="black" points="58.31,-18 43.79,-36 14.75,-36 0.23,-18 14.75,0 43.79,0 58.31,-18"/>
<text text-anchor="middle" x="29.27" y="-14.3" font-family="Helvetica,sans-Serif" font-size="14.00">API</text>
</g>
<!-- Container -->
<g id="node2" class="node">
<title>Container</title>
<polygon fill="cyan" stroke="black" points="160.27,-36 76.27,-36 76.27,0 160.27,0 160.27,-36"/>
<text text-anchor="middle" x="118.27" y="-14.3" font-family="Helvetica,sans-Serif" font-size="14.00">Container</text>
</g>
<!-- Store -->
<g id="node3" class="node">
<title>Store</title>
<path fill="beige" stroke="black" d="M232.27,-32.73C232.27,-34.53 220.17,-36 205.27,-36 190.37,-36 178.27,-34.53 178.27,-32.73 178.27,-32.73 178.27,-3.27 178.27,-3.27 178.27,-1.47 190.37,0 205.27,0 220.17,0 232.27,-1.47 232.27,-3.27 232.27,-3.27 232.27,-32.73 232.27,-32.73"/>
<path fill="none" stroke="black" d="M232.27,-32.73C232.27,-30.92 220.17,-29.45 205.27,-29.45 190.37,-29.45 178.27,-30.92 178.27,-32.73"/>
<text text-anchor="middle" x="205.27" y="-14.3" font-family="Helvetica,sans-Serif" font-size="14.00">Store</text>
</g>
</g>
</svg>
