<?xml version="1.0" encoding="UTF-8" standalone="no"?>
<!DOCTYPE svg PUBLIC "-//W3C//DTD SVG 1.1//EN"
 "http://www.w3.org/Graphics/SVG/1.1/DTD/svg11.dtd">
<!-- Generated by graphviz version 2.42.4 (0)
 -->
<!-- Pages: 1 -->
<svg width="282pt" height="376pt"
 viewBox="0.00 0.00 281.50 376.25" xmlns="http://www.w3.org/2000/svg" xmlns:xlink="http://www.w3.org/1999/xlink">
<g id="graph0" class="graph" transform="scale(1 1) rotate(0) translate(4 372.25)">
<polygon fill="white" stroke="transparent" points="-4,4 -4,-372.25 277.5,-372.25 277.5,4 -4,4"/>
<g id="clust1" class="cluster">
<title>cluster_node</title>
<polygon fill="none" stroke="black" points="63.5,-77 63.5,-360.25 265.5,-360.25 265.5,-77 63.5,-77"/>
<text text-anchor="middle" x="164.5" y="-343.45" font-family="Helvetica,sans-Serif" font-size="16.00">Node</text>
</g>
<!-- Logs -->
<g id="node1" class="node">
<title>Logs</title>
<path fill="beige" stroke="black" d="M200,-219.6C200,-222.24 180.05,-224.38 155.5,-224.38 130.95,-224.38 111,-222.24 111,-219.6 111,-219.6 111,-176.65 111,-176.65 111,-174.01 130.95,-171.87 155.5,-171.87 180.05,-171.87 200,-174.01 200,-176.65 200,-176.65 200,-219.6 200,-219.6"/>
<path fill="none" stroke="black" d="M200,-219.6C200,-216.97 180.05,-214.83 155.5,-214.83 130.95,-214.83 111,-216.97 111,-219.6"/>
<text text-anchor="middle" x="155.5" y="-201.93" font-family="Helvetica,sans-Serif" font-size="14.00">Node Logs</text>
<text text-anchor="middle" x="155.5" y="-186.93" font-family="Helvetica,sans-Serif" font-size="14.00">/var/log/...</text>
</g>
<!-- Fluentd -->
<g id="node4" class="node">
<title>Fluentd</title>
<polygon fill="cyan" stroke="black" points="209,-123 102,-123 102,-85 209,-85 209,-123"/>
<text text-anchor="middle" x="155.5" y="-107.8" font-family="Helvetica,sans-Serif" font-size="14.00">Fluentd</text>
<text text-anchor="middle" x="155.5" y="-92.8" font-family="Helvetica,sans-Serif" font-size="14.00">(DaemonSet)</text>
</g>
<!-- Logs&#45;&gt;Fluentd -->
<g id="edge3" class="edge">
<title>Logs&#45;&gt;Fluentd</title>
<path fill="none" stroke="black" d="M155.5,-171.95C155.5,-160 155.5,-145.67 155.5,-133.34"/>
<polygon fill="black" stroke="black" points="159,-133.13 155.5,-123.13 152,-133.13 159,-133.13"/>
<text text-anchor="middle" x="169.5" y="-144.4" font-family="Helvetica,sans-Serif" font-size="12.00">read</text>
</g>
<!-- Container -->
<g id="node2" class="node">
<title>Container</title>
<polygon fill="cyan" stroke="black" points="257.5,-326.25 163.5,-326.25 163.5,-273.25 257.5,-273.25 257.5,-326.25"/>
<text text-anchor="middle" x="210.5" y="-311.05" font-family="Helvetica,sans-Serif" font-size="14.00">Application</text>
<text text-anchor="middle" x="210.5" y="-296.05" font-family="Helvetica,sans-Serif" font-size="14.00">Container</text>
<text text-anchor="middle" x="210.5" y="-281.05" font-family="Helvetica,sans-Serif" font-size="14.00">(CRI&#45;O)</text>
</g>
<!-- Container&#45;&gt;Logs -->
<g id="edge1" class="edge">
<title>Container&#45;&gt;Logs</title>
<path fill="none" stroke="black" d="M196.34,-273.09C189.68,-261.03 181.64,-246.48 174.47,-233.48"/>
<polygon fill="black" stroke="black" points="177.32,-231.41 169.43,-224.35 171.19,-234.8 177.32,-231.41"/>
<text text-anchor="middle" x="202" y="-245.65" font-family="Helvetica,sans-Serif" font-size="12.00">write</text>
</g>
<!-- Journald -->
<g id="node3" class="node">
<title>Journald</title>
<polygon fill="aliceblue" stroke="black" points="145.5,-317.75 71.5,-317.75 71.5,-281.75 145.5,-281.75 145.5,-317.75"/>
<text text-anchor="middle" x="108.5" y="-296.05" font-family="Helvetica,sans-Serif" font-size="14.00">Journald</text>
</g>
<!-- Journald&#45;&gt;Logs -->
<g id="edge2" class="edge">
<title>Journald&#45;&gt;Logs</title>
<path fill="none" stroke="black" d="M116.69,-281.4C122.89,-268.25 131.61,-249.77 139.21,-233.66"/>
<polygon fill="black" stroke="black" points="142.43,-235.04 143.53,-224.5 136.1,-232.05 142.43,-235.04"/>
<text text-anchor="middle" x="151" y="-245.65" font-family="Helvetica,sans-Serif" font-size="12.00">write</text>
</g>
<!-- es -->
<g id="node5" class="node">
<title>es</title>
<polygon fill="aliceblue" stroke="black" points="107,-36 0,-36 0,0 107,0 107,-36"/>
<text text-anchor="middle" x="53.5" y="-14.3" font-family="Helvetica,sans-Serif" font-size="14.00">Elasticsearch</text>
</g>
<!-- Fluentd&#45;&gt;es -->
<g id="edge4" class="edge">
<title>Fluentd&#45;&gt;es</title>
<path fill="none" stroke="black" d="M133.62,-84.98C118.66,-72.66 98.69,-56.21 82.42,-42.82"/>
<polygon fill="black" stroke="black" points="84.25,-39.79 74.3,-36.13 79.8,-45.19 84.25,-39.79"/>
<text text-anchor="middle" x="127" y="-57.4" font-family="Helvetica,sans-Serif" font-size="12.00">HTTP</text>
</g>
<!-- syslog -->
<g id="node6" class="node">
<title>syslog</title>
<polygon fill="aliceblue" stroke="black" points="186,-36 125,-36 125,0 186,0 186,-36"/>
<text text-anchor="middle" x="155.5" y="-14.3" font-family="Helvetica,sans-Serif" font-size="14.00">syslog</text>
</g>
<!-- Fluentd&#45;&gt;syslog -->
<g id="edge5" class="edge">
<title>Fluentd&#45;&gt;syslog</title>
<path fill="none" stroke="black" d="M155.5,-84.77C155.5,-73.46 155.5,-58.73 155.5,-46.07"/>
<polygon fill="black" stroke="black" points="159,-46.05 155.5,-36.05 152,-46.05 159,-46.05"/>
<text text-anchor="middle" x="181.5" y="-57.4" font-family="Helvetica,sans-Serif" font-size="12.00">UDP/TCP</text>
</g>
<!-- Kafka -->
<g id="node7" class="node">
<title>Kafka</title>
<polygon fill="aliceblue" stroke="black" points="259,-36 204,-36 204,0 259,0 259,-36"/>
<text text-anchor="middle" x="231.5" y="-14.3" font-family="Helvetica,sans-Serif" font-size="14.00">Kafka</text>
</g>
<!-- Fluentd&#45;&gt;Kafka -->
<g id="edge6" class="edge">
<title>Fluentd&#45;&gt;Kafka</title>
<path fill="none" stroke="black" d="M188.96,-84.88C196.37,-79.79 203.72,-73.77 209.5,-67 214.74,-60.86 218.97,-53.27 222.28,-45.95"/>
<polygon fill="black" stroke="black" points="225.68,-46.89 226.21,-36.3 219.19,-44.24 225.68,-46.89"/>
<text text-anchor="middle" x="229" y="-57.4" font-family="Helvetica,sans-Serif" font-size="12.00">TCP</text>
</g>
</g>
</svg>
