<?xml version="1.0" encoding="UTF-8" standalone="no"?>
<!DOCTYPE svg PUBLIC "-//W3C//DTD SVG 1.1//EN"
 "http://www.w3.org/Graphics/SVG/1.1/DTD/svg11.dtd">
<!-- Generated by graphviz version 2.42.4 (0)
 -->
<!-- Pages: 1 -->
<svg width="539pt" height="407pt"
 viewBox="0.00 0.00 539.00 407.49" xmlns="http://www.w3.org/2000/svg" xmlns:xlink="http://www.w3.org/1999/xlink">
<g id="graph0" class="graph" transform="scale(1 1) rotate(0) translate(4 403.49)">
<polygon fill="white" stroke="transparent" points="-4,4 -4,-403.49 535,-403.49 535,4 -4,4"/>
<g id="clust2" class="cluster">
<title>cluster_clo</title>
<polygon fill="none" stroke="black" points="64,-313.49 64,-391.49 523,-391.49 523,-313.49 64,-313.49"/>
<text text-anchor="middle" x="293.5" y="-374.69" font-family="Helvetica,sans-Serif" font-size="16.00">Cluster Logging Operator</text>
</g>
<g id="clust3" class="cluster">
<title>cluster_elo</title>
<polygon fill="none" stroke="black" points="8,-204.49 8,-282.49 298,-282.49 298,-204.49 8,-204.49"/>
<text text-anchor="middle" x="153" y="-265.69" font-family="Helvetica,sans-Serif" font-size="16.00">Elasticsearch Operator</text>
</g>
<!-- cl -->
<g id="node1" class="node">
<title>cl</title>
<polygon fill="orchid" stroke="black" points="255.62,-339.49 209.81,-357.49 118.19,-357.49 72.38,-339.49 118.19,-321.49 209.81,-321.49 255.62,-339.49"/>
<text text-anchor="middle" x="164" y="-335.79" font-family="Helvetica,sans-Serif" font-size="14.00">ClusterLogging</text>
</g>
<!-- es -->
<g id="node3" class="node">
<title>es</title>
<polygon fill="orchid" stroke="black" points="176.11,-230.49 136.05,-248.49 55.95,-248.49 15.89,-230.49 55.95,-212.49 136.05,-212.49 176.11,-230.49"/>
<text text-anchor="middle" x="96" y="-226.79" font-family="Helvetica,sans-Serif" font-size="14.00">Elasticsearch</text>
</g>
<!-- cl&#45;&gt;es -->
<g id="edge2" class="edge">
<title>cl&#45;&gt;es</title>
<path fill="none" stroke="black" d="M153.07,-321.3C142.07,-303.98 124.96,-277.06 112.34,-257.2"/>
<polygon fill="black" stroke="black" points="115.22,-255.2 106.9,-248.64 109.31,-258.96 115.22,-255.2"/>
<text text-anchor="middle" x="163.5" y="-293.89" font-family="Helvetica,sans-Serif" font-size="12.00">creates</text>
</g>
<!-- kb -->
<g id="node4" class="node">
<title>kb</title>
<polygon fill="orchid" stroke="black" points="290.06,-230.49 266.03,-248.49 217.97,-248.49 193.94,-230.49 217.97,-212.49 266.03,-212.49 290.06,-230.49"/>
<text text-anchor="middle" x="242" y="-226.79" font-family="Helvetica,sans-Serif" font-size="14.00">Kibana</text>
</g>
<!-- cl&#45;&gt;kb -->
<g id="edge3" class="edge">
<title>cl&#45;&gt;kb</title>
<path fill="none" stroke="black" d="M176.74,-321.43C180.98,-315.74 185.71,-309.35 190,-303.49 201.21,-288.18 213.66,-270.96 223.56,-257.19"/>
<polygon fill="black" stroke="black" points="226.67,-258.87 229.67,-248.7 220.99,-254.78 226.67,-258.87"/>
<text text-anchor="middle" x="221.5" y="-293.89" font-family="Helvetica,sans-Serif" font-size="12.00">creates</text>
</g>
<!-- fd -->
<g id="node5" class="node">
<title>fd</title>
<polygon fill="cyan" stroke="black" points="432.5,-256.99 313.5,-256.99 313.5,-203.99 432.5,-203.99 432.5,-256.99"/>
<text text-anchor="middle" x="373" y="-241.79" font-family="Helvetica,sans-Serif" font-size="14.00">Fluentd</text>
<text text-anchor="middle" x="373" y="-226.79" font-family="Helvetica,sans-Serif" font-size="14.00">Daemonset</text>
<text text-anchor="middle" x="373" y="-211.79" font-family="Helvetica,sans-Serif" font-size="14.00">(Pod per node)</text>
</g>
<!-- cl&#45;&gt;fd -->
<g id="edge4" class="edge">
<title>cl&#45;&gt;fd</title>
<path fill="none" stroke="black" d="M211.91,-322.25C239.06,-312.26 273.25,-298.35 302,-282.49 312.28,-276.82 322.83,-269.92 332.54,-263.05"/>
<polygon fill="black" stroke="black" points="334.79,-265.75 340.84,-257.06 330.69,-260.08 334.79,-265.75"/>
<text text-anchor="middle" x="307.5" y="-293.89" font-family="Helvetica,sans-Serif" font-size="12.00">creates</text>
</g>
<!-- clf -->
<g id="node2" class="node">
<title>clf</title>
<polygon fill="orchid" stroke="black" points="514.66,-339.49 454.33,-357.49 333.67,-357.49 273.34,-339.49 333.67,-321.49 454.33,-321.49 514.66,-339.49"/>
<text text-anchor="middle" x="394" y="-335.79" font-family="Helvetica,sans-Serif" font-size="14.00">ClusterLogForwarder</text>
</g>
<!-- clf&#45;&gt;fd -->
<g id="edge1" class="edge">
<title>clf&#45;&gt;fd</title>
<path fill="none" stroke="black" d="M390.63,-321.3C387.76,-306.71 383.56,-285.31 379.98,-267.05"/>
<polygon fill="black" stroke="black" points="383.37,-266.16 378.01,-257.02 376.5,-267.51 383.37,-266.16"/>
<text text-anchor="middle" x="417.5" y="-293.89" font-family="Helvetica,sans-Serif" font-size="12.00">configures</text>
</g>
<!-- store -->
<g id="node6" class="node">
<title>store</title>
<path fill="beige" stroke="black" d="M153,-150.34C153,-152.98 140.9,-155.12 126,-155.12 111.1,-155.12 99,-152.98 99,-150.34 99,-150.34 99,-107.39 99,-107.39 99,-104.75 111.1,-102.61 126,-102.61 140.9,-102.61 153,-104.75 153,-107.39 153,-107.39 153,-150.34 153,-150.34"/>
<path fill="none" stroke="black" d="M153,-150.34C153,-147.71 140.9,-145.57 126,-145.57 111.1,-145.57 99,-147.71 99,-150.34"/>
<text text-anchor="middle" x="126" y="-132.67" font-family="Helvetica,sans-Serif" font-size="14.00">Log</text>
<text text-anchor="middle" x="126" y="-117.67" font-family="Helvetica,sans-Serif" font-size="14.00">Store</text>
</g>
<!-- es&#45;&gt;store -->
<g id="edge5" class="edge">
<title>es&#45;&gt;store</title>
<path fill="none" stroke="black" d="M101.23,-212.14C105.15,-199.12 110.64,-180.86 115.47,-164.85"/>
<polygon fill="black" stroke="black" points="118.83,-165.82 118.36,-155.24 112.12,-163.8 118.83,-165.82"/>
<text text-anchor="middle" x="137" y="-176.39" font-family="Helvetica,sans-Serif" font-size="12.00">controls</text>
</g>
<!-- ui -->
<g id="node7" class="node">
<title>ui</title>
<ellipse fill="aliceblue" stroke="black" cx="199" cy="-26.87" rx="82.05" ry="26.74"/>
<text text-anchor="middle" x="199" y="-30.67" font-family="Helvetica,sans-Serif" font-size="14.00">Kibana</text>
<text text-anchor="middle" x="199" y="-15.67" font-family="Helvetica,sans-Serif" font-size="14.00">User Interface</text>
</g>
<!-- kb&#45;&gt;ui -->
<g id="edge6" class="edge">
<title>kb&#45;&gt;ui</title>
<path fill="none" stroke="black" d="M241.32,-212.08C239.78,-182.6 234.91,-121.25 220,-71.74 219.16,-68.94 218.15,-66.09 217.05,-63.25"/>
<polygon fill="black" stroke="black" points="220.16,-61.62 213.02,-53.79 213.72,-64.36 220.16,-61.62"/>
<text text-anchor="middle" x="262.5" y="-125.77" font-family="Helvetica,sans-Serif" font-size="12.00">provides</text>
</g>
<!-- ui&#45;&gt;store -->
<g id="edge7" class="edge">
<title>ui&#45;&gt;store</title>
<path fill="none" stroke="black" d="M180.4,-53.35C171.16,-66.01 159.88,-81.46 149.99,-95"/>
<polygon fill="black" stroke="black" points="147.11,-93.01 144.04,-103.15 152.77,-97.13 147.11,-93.01"/>
<text text-anchor="middle" x="191.5" y="-75.14" font-family="Helvetica,sans-Serif" font-size="12.00">browses</text>
</g>
</g>
</svg>
